<?xml version="1.0" encoding="UTF-8"?>
<svg xmlns="http://www.w3.org/2000/svg" width="900" height="620" viewBox="0 0 900 620">
  <defs>
    <linearGradient id="bg" x1="0" y1="0" x2="1" y2="1">
      <stop offset="0" stop-color="#101820" />
      <stop offset="1" stop-color="#243447" />
    </linearGradient>
  </defs>
  <rect width="900" height="620" fill="url(#bg)" />
  <text x="28" y="42" fill="#f4f7fb" font-family="Consolas, monospace" font-size="22" font-weight="700">Minecraft Environment Frame</text>
  <text x="28" y="76" fill="#b9c7d4" font-family="Consolas, monospace" font-size="14">user=StelleImg mode=survival dim=overworld</text>
  <text x="28" y="100" fill="#b9c7d4" font-family="Consolas, monospace" font-size="14">pos=60.5, 69.0, 81.5 health=20 food=20</text>
  <rect x="28" y="126" width="584" height="388" rx="18" fill="#0b1218" stroke="#718096" stroke-opacity="0.35" />
  <g>
    <rect x="313" y="271" width="14" height="14" rx="3" fill="#848484" opacity="0.88" /><title>stone 60,69,82</title>
<rect x="331" y="271" width="14" height="14" rx="3" fill="#848484" opacity="0.88" /><title>stone 61,69,82</title>
<rect x="313" y="253" width="14" height="14" rx="3" fill="#848484" opacity="0.88" /><title>stone 60,68,81</title>
<rect x="313" y="271" width="14" height="14" rx="3" fill="#848484" opacity="0.88" /><title>stone 60,68,82</title>
<rect x="331" y="253" width="14" height="14" rx="3" fill="#848484" opacity="0.88" /><title>stone 61,68,81</title>
<rect x="331" y="271" width="14" height="14" rx="3" fill="#848484" opacity="0.88" /><title>stone 61,68,82</title>
<rect x="313" y="289" width="14" height="14" rx="3" fill="#848484" opacity="0.88" /><title>stone 60,69,83</title>
<rect x="331" y="289" width="14" height="14" rx="3" fill="#848484" opacity="0.88" /><title>stone 61,69,83</title>
<rect x="349" y="253" width="14" height="14" rx="3" fill="#848484" opacity="0.88" /><title>stone 62,69,81</title>
<rect x="349" y="271" width="14" height="14" rx="3" fill="#848484" opacity="0.88" /><title>stone 62,69,82</title>
<rect x="295" y="253" width="14" height="14" rx="3" fill="#848484" opacity="0.88" /><title>stone 59,68,81</title>
<rect x="295" y="271" width="14" height="14" rx="3" fill="#848484" opacity="0.88" /><title>stone 59,68,82</title>
<rect x="313" y="289" width="14" height="14" rx="3" fill="#848484" opacity="0.88" /><title>stone 60,68,83</title>
<rect x="331" y="235" width="14" height="14" rx="3" fill="#848484" opacity="0.88" /><title>stone 61,68,80</title>
<rect x="331" y="289" width="14" height="14" rx="3" fill="#848484" opacity="0.88" /><title>stone 61,68,83</title>
<rect x="349" y="253" width="14" height="14" rx="3" fill="#848484" opacity="0.88" /><title>stone 62,68,81</title>
<rect x="349" y="271" width="14" height="14" rx="3" fill="#848484" opacity="0.88" /><title>stone 62,68,82</title>
<rect x="295" y="289" width="14" height="14" rx="3" fill="#848484" opacity="0.88" /><title>stone 59,69,83</title>
<rect x="313" y="253" width="14" height="14" rx="3" fill="#848484" opacity="0.88" /><title>stone 60,67,81</title>
<rect x="313" y="271" width="14" height="14" rx="3" fill="#848484" opacity="0.88" /><title>stone 60,67,82</title>
<rect x="331" y="253" width="14" height="14" rx="3" fill="#848484" opacity="0.88" /><title>stone 61,67,81</title>
<rect x="331" y="271" width="14" height="14" rx="3" fill="#848484" opacity="0.88" /><title>stone 61,67,82</title>
<rect x="349" y="289" width="14" height="14" rx="3" fill="#848484" opacity="0.88" /><title>stone 62,69,83</title>
<rect x="295" y="289" width="14" height="14" rx="3" fill="#848484" opacity="0.88" /><title>stone 59,68,83</title>
    <circle cx="320" cy="260" r="12" fill="#ffdb5c" stroke="#1f2937" stroke-width="3" />
    <text x="338" y="265" fill="#ffefad" font-family="Consolas, monospace" font-size="13">BOT</text>
  </g>
  <text x="46" y="494" fill="#9fb2c4" font-family="Consolas, monospace" font-size="12">Top-down schematic. Blocks are nearby known blocks, not a rendered client camera.</text>
  <rect x="636" y="126" width="236" height="388" rx="18" fill="#0b1218" stroke="#718096" stroke-opacity="0.35" />
  <text x="656" y="158" fill="#f4f7fb" font-family="Consolas, monospace" font-size="16" font-weight="700">Inventory</text>
  <foreignObject x="656" y="172" width="196" height="108">
    <div xmlns="http://www.w3.org/1999/xhtml" style="font: 13px Consolas, monospace; color: #b9c7d4; line-height: 1.45; word-break: break-word;">empty</div>
  </foreignObject>
  <text x="656" y="316" fill="#f4f7fb" font-family="Consolas, monospace" font-size="16" font-weight="700">Entities</text>
  <foreignObject x="656" y="330" width="196" height="92">
    <div xmlns="http://www.w3.org/1999/xhtml" style="font: 13px Consolas, monospace; color: #b9c7d4; line-height: 1.45; word-break: break-word;">player:player, cod:water_creature, cod:water_creature, cod:water_creature, cod:water_creature, tropical_fish:water_creature</div>
  </foreignObject>
  <text x="28" y="562" fill="#b9c7d4" font-family="Consolas, monospace" font-size="13">generated=2026-04-20T10:02:47.916Z</text>
</svg>